HIERARCHY
ROOT joint_Root
{
	OFFSET 0.0 0.0 0.0
	CHANNELS 6 Xposition Yposition Zposition Zrotation Xrotation Yrotation 
	JOINT Hips
	{
		OFFSET -0.726466 93.3139 -2.00062
		CHANNELS 6 Xposition Yposition Zposition Zrotation Xrotation Yrotation 
		JOINT Spine
		{
			OFFSET 15.7357 0.0 0.0
			CHANNELS 6 Xposition Yposition Zposition Zrotation Xrotation Yrotation 
			JOINT Chest
			{
				OFFSET 8.98455 -0.406207 0.0
				CHANNELS 6 Xposition Yposition Zposition Zrotation Xrotation Yrotation 
				JOINT Neck
				{
					OFFSET 16.3773 0.0 0.0
					CHANNELS 6 Xposition Yposition Zposition Zrotation Xrotation Yrotation 
					JOINT Head
					{
						OFFSET 6.45672 0.0 0.0
						CHANNELS 6 Xposition Yposition Zposition Zrotation Xrotation Yrotation 
						End Site
						{
							OFFSET 0.0 0.0 0.0
						}
					}
				}
				JOINT Shoulder_L
				{
					OFFSET 12.9942 -0.242716 4.98039
					CHANNELS 6 Xposition Yposition Zposition Zrotation Xrotation Yrotation 
					JOINT UpperArm_L
					{
						OFFSET 5.34809 0.0 0.0
						CHANNELS 6 Xposition Yposition Zposition Zrotation Xrotation Yrotation 
						JOINT LowerArm_L
						{
							OFFSET 24.3286 1.87007e-05 0.0
							CHANNELS 6 Xposition Yposition Zposition Zrotation Xrotation Yrotation 
							JOINT Hand_L
							{
								OFFSET 22.2916 0.0 0.0
								CHANNELS 6 Xposition Yposition Zposition Zrotation Xrotation Yrotation 
								End Site
								{
									OFFSET 0.0 0.0 0.0
								}
							}
						}
					}
				}
				JOINT Shoulder_R
				{
					OFFSET 12.9945 -0.242716 -4.98039
					CHANNELS 6 Xposition Yposition Zposition Zrotation Xrotation Yrotation 
					JOINT UpperArm_R
					{
						OFFSET -5.34813 0.0 0.0
						CHANNELS 6 Xposition Yposition Zposition Zrotation Xrotation Yrotation 
						JOINT LowerArm_R
						{
							OFFSET -24.3289 0.000322201 0.0
							CHANNELS 6 Xposition Yposition Zposition Zrotation Xrotation Yrotation 
							JOINT Hand_R
							{
								OFFSET -22.2915 -0.000108084 0.0
								CHANNELS 6 Xposition Yposition Zposition Zrotation Xrotation Yrotation 
								End Site
								{
									OFFSET 0.0 0.0 0.0
								}
							}
						}
					}
				}
			}
		}
		JOINT UpperLeg_L
		{
			OFFSET -2.19248 -6.46944 0.0
			CHANNELS 6 Xposition Yposition Zposition Zrotation Xrotation Yrotation 
			JOINT LowerLeg_L
			{
				OFFSET 39.0811 0.0 -1.23785e-05
				CHANNELS 6 Xposition Yposition Zposition Zrotation Xrotation Yrotation 
				JOINT Foot_L
				{
					OFFSET 40.9854 0.0 -1.26872e-05
					CHANNELS 6 Xposition Yposition Zposition Zrotation Xrotation Yrotation 
					JOINT Toes_L
					{
						OFFSET 11.7543 0.0 0.0
						CHANNELS 6 Xposition Yposition Zposition Zrotation Xrotation Yrotation 
						End Site
						{
							OFFSET 0.0 0.0 0.0
						}
					}
				}
			}
		}
		JOINT UpperLeg_R
		{
			OFFSET -2.19251 6.46944 0.0
			CHANNELS 6 Xposition Yposition Zposition Zrotation Xrotation Yrotation 
			JOINT LowerLeg_R
			{
				OFFSET -39.0811 -0.00228153 -0.0401928
				CHANNELS 6 Xposition Yposition Zposition Zrotation Xrotation Yrotation 
				JOINT Foot_R
				{
					OFFSET -40.9854 0.0 0.0
					CHANNELS 6 Xposition Yposition Zposition Zrotation Xrotation Yrotation 
					JOINT Toes_R
					{
						OFFSET -11.7543 0.0 0.0
						CHANNELS 6 Xposition Yposition Zposition Zrotation Xrotation Yrotation 
						End Site
						{
							OFFSET 0.0 0.0 0.0
						}
					}
				}
			}
		}
	}
}
MOTION
Frames:	6
Frame Time:	0.0333333
0.000000 0.000000 0.000000 0.000000 0.000000 -0.000000 -1.550940 92.107000 -2.726180 87.452200 0.639196 3.401330 15.735700 0.000005 -0.000001 86.209200 85.127800 -85.902400 8.984550 -0.406207 -0.000000 1.958970 -0.659356 0.624442 16.377300 -0.000001 -0.000001 2.571660 -1.008280 -0.657046 6.456720 -0.000001 -0.000000 0.925486 0.192551 4.665820 12.994200 -0.242716 4.980390 -89.501800 -1.541710 -72.090700 5.348090 -0.000007 -0.000001 -65.739700 40.554800 -17.512800 24.328600 0.000019 0.000005 3.911970 8.331890 -25.261900 22.291600 -0.000001 0.000005 5.635630 5.530980 -7.838230 12.994500 -0.242716 -4.980390 87.516100 7.247990 -71.025600 -5.348130 -0.000001 -0.000004 -64.071700 38.863000 -15.364900 -24.328900 0.000322 -0.000009 2.243610 4.421990 -26.948300 -22.291500 -0.000108 -0.000004 9.613300 5.487420 -6.032380 -2.192480 -6.469440 -0.000000 -167.876000 -15.606100 -3.828340 39.081100 -0.000007 -0.000012 -0.180222 0.469718 20.991200 40.985400 -0.000006 -0.000013 -6.752220 3.718120 -61.728500 11.754300 -0.000000 0.000003 -0.000133 -0.001312 -16.627600 -2.192510 6.469440 -0.000001 174.627000 22.137400 178.966000 -39.081100 -0.002282 -0.040193 -0.070511 0.215644 18.900800 -40.985400 0.000008 0.000006 -4.242520 3.884750 -62.199600 -11.754300 -0.000006 -0.000006 -0.005002 -0.061485 -19.074800
0.000000 0.000000 0.000000 0.000000 0.000000 -0.000000 -1.549010 92.120700 -2.777390 87.459300 0.677899 3.340590 15.735700 0.000005 -0.000001 85.883800 85.149600 -85.580700 8.984550 -0.406207 -0.000000 1.911780 -0.711360 0.617430 16.377300 -0.000001 -0.000001 2.319640 -0.846521 -0.716485 6.456720 -0.000001 -0.000000 0.576667 0.401759 4.687620 12.994200 -0.242716 4.980390 -89.491600 -1.550070 -71.840000 5.348090 -0.000007 -0.000001 -65.945800 38.347900 -16.838100 24.328600 0.000019 0.000005 4.317310 8.824310 -26.202600 22.291600 -0.000001 0.000005 6.645110 5.536160 -8.066350 12.994500 -0.242716 -4.980390 87.531000 7.079320 -70.717000 -5.348130 -0.000001 -0.000004 -64.489000 35.940000 -14.523100 -24.328900 0.000322 -0.000009 2.153950 4.181470 -27.297100 -22.291500 -0.000108 -0.000004 11.331400 5.491850 -6.209410 -2.192480 -6.469440 -0.000000 -167.913000 -15.571400 -3.891790 39.081100 -0.000007 -0.000012 -0.179478 0.470129 20.895300 40.985400 -0.000006 -0.000013 -6.755280 3.688020 -61.643000 11.754300 -0.000000 0.000003 -0.000136 -0.001338 -16.628500 -2.192510 6.469440 -0.000001 174.672000 22.183100 178.870000 -39.081100 -0.002282 -0.040193 -0.068358 0.209697 18.872200 -40.985400 0.000008 0.000006 -4.136570 3.842660 -62.155500 -11.754300 -0.000006 -0.000006 -0.005106 -0.062483 -19.115500
0.000000 0.000000 0.000000 0.000000 0.000000 -0.000000 -1.542650 92.131600 -2.868780 87.478300 0.713639 3.275040 15.735700 0.000005 -0.000001 85.479500 85.194600 -85.175800 8.984550 -0.406207 -0.000000 1.817160 -0.772797 0.619192 16.377300 -0.000001 -0.000001 2.095120 -0.735347 -0.785789 6.456720 -0.000001 -0.000000 0.230350 0.507878 4.707360 12.994200 -0.242716 4.980390 -89.480700 -1.552800 -71.504300 5.348090 -0.000007 -0.000001 -65.903600 34.775500 -16.248000 24.328600 0.000019 0.000005 4.094410 8.214700 -26.610200 22.291600 -0.000001 0.000005 8.248660 5.541660 -8.317560 12.994500 -0.242716 -4.980390 87.550600 6.901330 -70.404300 -5.348130 -0.000001 -0.000004 -64.246700 32.235500 -14.095300 -24.328900 0.000322 -0.000009 2.180650 4.271980 -27.086600 -22.291500 -0.000108 -0.000004 12.807400 5.487300 -6.030830 -2.192480 -6.469440 -0.000000 -167.993000 -15.578500 -4.030630 39.081100 -0.000007 -0.000012 -0.175947 0.461512 20.869100 40.985400 -0.000006 -0.000013 -6.721290 3.682100 -61.558900 11.754300 -0.000000 0.000003 -0.000122 -0.001219 -16.624100 -2.192510 6.469440 -0.000001 174.708000 22.199900 178.741000 -39.081100 -0.002282 -0.040193 -0.066264 0.203766 18.855400 -40.985400 0.000008 0.000006 -4.138260 3.790380 -62.088600 -11.754300 -0.000006 -0.000006 -0.005157 -0.062973 -19.135400
0.000000 0.000000 0.000000 0.000000 0.000000 -0.000000 -1.544280 92.145700 -2.940620 87.482300 0.723579 3.248420 15.735700 0.000005 -0.000001 85.417900 85.242100 -85.121700 8.984550 -0.406207 -0.000000 1.721640 -0.775376 0.603635 16.377300 -0.000001 -0.000001 1.828450 -0.726247 -0.768601 6.456720 -0.000001 -0.000000 -0.074182 0.521270 4.731390 12.994200 -0.242716 4.980390 -89.454600 -1.613890 -71.325200 5.348090 -0.000007 -0.000001 -65.101500 30.169400 -16.190900 24.328600 0.000019 0.000005 3.992030 8.072900 -26.424400 22.291600 -0.000001 0.000005 9.756760 5.541070 -8.290930 12.994500 -0.242716 -4.980390 87.587700 6.691570 -70.123200 -5.348130 -0.000001 -0.000004 -63.128100 28.294700 -14.352500 -24.328900 0.000322 -0.000009 2.090220 4.307360 -25.928500 -22.291500 -0.000108 -0.000004 14.361700 5.489080 -6.100420 -2.192480 -6.469440 -0.000000 -168.022000 -15.525400 -4.060430 39.081100 -0.000007 -0.000012 -0.173557 0.457458 20.776700 40.985400 -0.000006 -0.000013 -6.722170 3.646980 -61.476700 11.754300 -0.000000 0.000003 -0.000121 -0.001213 -16.623900 -2.192510 6.469440 -0.000001 174.744000 22.196400 178.671000 -39.081100 -0.002282 -0.040193 -0.064657 0.199527 18.814300 -40.985400 0.000008 0.000006 -4.057370 3.767410 -62.022800 -11.754300 -0.000006 -0.000006 -0.004854 -0.060050 -19.016300
0.000000 0.000000 0.000000 0.000000 0.000000 -0.000000 -1.542780 92.156000 -3.024000 87.474700 0.709863 3.279020 15.735700 0.000005 -0.000001 85.514100 85.278600 -85.226900 8.984550 -0.406207 -0.000000 1.649860 -0.753462 0.584916 16.377300 -0.000001 -0.000001 1.556580 -0.765617 -0.760498 6.456720 -0.000001 -0.000000 -0.395930 0.443765 4.796310 12.994200 -0.242716 4.980390 -89.425700 -1.682990 -71.154500 5.348090 -0.000007 -0.000001 -63.068400 25.293400 -17.085700 24.328600 0.000019 0.000005 3.890850 8.222580 -25.433300 22.291600 -0.000001 0.000005 10.619400 5.541210 -8.297460 12.994500 -0.242716 -4.980390 87.651400 6.464420 -69.984200 -5.348130 -0.000001 -0.000004 -61.013600 24.168900 -15.211400 -24.328900 0.000322 -0.000009 1.878220 4.181900 -24.224600 -22.291500 -0.000108 -0.000004 15.146400 5.480490 -5.767360 -2.192480 -6.469440 -0.000000 -168.027000 -15.536100 -4.071180 39.081100 -0.000007 -0.000012 -0.171515 0.452840 20.744600 40.985400 -0.000006 -0.000013 -6.705560 3.639310 -61.405800 11.754300 -0.000000 0.000003 -0.000123 -0.001230 -16.624500 -2.192510 6.469440 -0.000001 174.781000 22.160300 178.632000 -39.081100 -0.002282 -0.040193 -0.062315 0.192674 18.812500 -40.985400 0.000008 0.000006 -3.944630 3.735620 -61.975400 -11.754300 -0.000006 -0.000006 -0.004985 -0.061323 -19.068200
0.000000 0.000000 0.000000 0.000000 0.000000 -0.000000 -1.548480 92.164100 -3.124960 87.443900 0.702766 3.317160 15.735700 0.000005 -0.000001 85.396900 85.320500 -85.107500 8.984550 -0.406207 -0.000000 1.564950 -0.766348 0.588760 16.377300 -0.000001 -0.000001 1.212950 -0.778092 -0.776536 6.456720 -0.000001 -0.000000 -0.672577 0.328972 4.945630 12.994200 -0.242716 4.980390 -89.329700 -1.956060 -71.080500 5.348090 -0.000007 -0.000001 -60.926700 19.362600 -18.129200 24.328600 0.000019 0.000005 3.556970 7.943450 -24.217800 22.291600 -0.000001 0.000005 11.447700 5.545610 -8.500170 12.994500 -0.242716 -4.980390 87.746400 6.190450 -69.951300 -5.348130 -0.000001 -0.000004 -58.298000 19.381500 -16.459500 -24.328900 0.000322 -0.000009 1.715320 4.202960 -22.238100 -22.291500 -0.000108 -0.000004 15.335800 5.471660 -5.432570 -2.192480 -6.469440 -0.000000 -167.997000 -15.521000 -4.098450 39.081100 -0.000007 -0.000012 -0.171891 0.454129 20.732200 40.985400 -0.000006 -0.000013 -6.699960 3.632700 -61.332700 11.754300 -0.000000 0.000003 -0.000129 -0.001279 -16.626400 -2.192510 6.469440 -0.000001 174.848000 22.137300 178.588000 -39.081100 -0.002282 -0.040193 -0.060092 0.186161 18.811500 -40.985400 0.000008 0.000006 -3.864430 3.672900 -61.914100 -11.754300 -0.000006 -0.000006 -0.005188 -0.063272 -19.147600
